<?xml version="1.0" ?><!DOCTYPE svg  PUBLIC '-//W3C//DTD SVG 1.1//EN'  'http://www.w3.org/Graphics/SVG/1.1/DTD/svg11.dtd'><svg enable-background="new 0 0 130 130" height="130px" id="Layer_1" version="1.1" viewBox="0 0 130 130" width="130px" xml:space="preserve" xmlns="http://www.w3.org/2000/svg" xmlns:xlink="http://www.w3.org/1999/xlink"><g><g><path d="M105.133,10.223l-12.82-7.344c-0.561-0.408-1.162-0.754-1.801-1.032l-0.189-0.108l-0.008,0.016    c-3.449-1.402-7.904-0.895-12.764,1.91L38.064,26.46c-10.857,6.269-19.74,21.655-19.74,34.193v45.591    c0,6.114,2.123,10.45,5.547,12.578l-0.033,0.059l14.248,8.072l8.012-13.949l31.453-18.157c10.855-6.269,19.74-21.655,19.74-34.193    V23.876L105.133,10.223z" fill="#19ADF7"/><path d="M105.133,10.223L91.41,7.005c-0.561-0.409-3.363-0.398-4.002-0.677L86.391,5.92l-1.832-0.34    c-3.449-1.402-2.148-4.721-7.008-1.916L38.064,26.46c-10.857,6.269-19.74,21.655-19.74,34.193v45.591    c0,6.114,2.123,10.45,5.547,12.578l-0.033,0.059l14.248,8.072l8.012-13.949l31.453-18.157c10.855-6.269,19.74-21.655,19.74-34.193    V23.876L105.133,10.223z" fill="#0E91E2"/><path d="M19.076,54.085c-0.479,2.231-0.752,4.442-0.752,6.568v45.591c0,6.114,2.123,10.45,5.547,12.578    l-0.033,0.059l14.248,8.072l8.012-13.949l31.453-18.157c1.844-1.065,3.627-2.411,5.322-3.945L19.076,54.085z" fill="#097ACE"/><g><path d="M51.635,34.329c-10.857,6.269-19.742,21.655-19.742,34.193v45.591c0,12.538,8.885,17.666,19.742,11.398     l39.484-22.796c10.857-6.269,19.742-21.655,19.742-34.193V22.932c0-12.538-8.885-17.666-19.742-11.398L51.635,34.329z" fill="#30C3FC"/><path d="M110.861,22.932c0-12.538-8.885-17.666-19.742-11.398L51.635,34.329     c-10.857,6.269-19.742,21.655-19.742,34.193v45.591c0,12.538,8.885,17.666,19.742,11.398" fill="#24AEF0"/><path d="M42.865,129h-0.002c-7.158,0-11.783-5.844-11.783-14.887V68.522c0-12.829,9.037-28.485,20.146-34.897     l39.486-22.796c3.201-1.848,6.289-2.784,9.178-2.784c7.158,0,11.785,5.844,11.785,14.887v45.591     c0,12.829-9.039,28.485-20.148,34.897l-39.486,22.796C48.84,128.063,45.754,129,42.865,129z M99.891,9.674     c-2.6,0-5.414,0.863-8.363,2.564L52.041,35.033c-10.66,6.156-19.334,21.179-19.334,33.489v45.591     c0,8.178,3.891,13.259,10.156,13.259h0.002c2.6,0,5.412-0.864,8.361-2.565l39.486-22.795     c10.66-6.155,19.334-21.179,19.334-33.489V22.932C110.047,14.754,106.156,9.674,99.891,9.674z" fill="#50D6FF"/></g></g><g><g enable-background="new    "><g><path d="M72.207,83.725c2.426-1.399,4.4-3.126,5.889-5.148c1.457-1.963,2.16-3.729,2.154-5.385      c-0.002-1.31-0.377-2.127-1.129-2.498c-0.805-0.379-1.861-0.425-3.139-0.144c-1.33,0.3-3.137,0.827-5.373,1.593      c-3.039,1.02-5.623,1.636-7.68,1.83c-2.098,0.199-3.795-0.232-5.033-1.264c-1.266-1.068-1.91-2.931-1.918-5.558      c-0.008-2.501,0.66-5.15,1.965-7.851c1.307-2.691,3.211-5.311,5.676-7.756c2.422-2.422,5.311-4.606,8.582-6.494      c2.615-1.511,4.912-2.488,6.838-2.926c1.926-0.427,3.553-0.452,4.832-0.058c1.297,0.404,2.258,1.06,2.857,1.987      c0.609,0.929,0.922,2.019,0.926,3.247c0.004,1.183-0.391,2.492-1.189,3.897c-0.791,1.399-1.809,2.472-3,3.16      c-1.078,0.623-1.934,0.809-2.523,0.563c-0.545-0.242-1.115-0.768-1.758-1.627c-0.73-1.148-1.621-1.874-2.635-2.163      c-0.986-0.286-2.635,0.238-4.896,1.546c-2.088,1.205-3.795,2.666-5.062,4.341c-1.213,1.606-1.805,2.991-1.803,4.229      c0.002,0.744,0.195,1.269,0.592,1.585c0.416,0.336,1.006,0.504,1.748,0.491c0.77,0.003,1.564-0.107,2.359-0.319      c0.812-0.209,2.176-0.621,4.051-1.215c2.375-0.795,4.551-1.396,6.469-1.809c1.961-0.428,3.646-0.536,5.021-0.307      c1.41,0.219,2.518,0.909,3.309,2.043c0.799,1.14,1.209,2.867,1.215,5.148c0.008,2.728-0.684,5.621-2.033,8.583      c-1.348,2.954-3.336,5.831-5.932,8.55c-2.566,2.686-5.639,5.084-9.141,7.105c-4.203,2.427-7.727,3.618-10.492,3.557      c-1.963-0.068-3.59-0.759-4.83-2.07c-1.248-1.305-1.885-2.955-1.891-4.906c-0.002-1.211,0.408-2.501,1.217-3.831      c0.791-1.323,1.826-2.348,3.053-3.055c1-0.577,1.873-0.743,2.574-0.473c0.676,0.265,1.256,0.894,1.725,1.854      c0.529,1.043,1.094,1.852,1.691,2.4c0.582,0.529,1.402,0.779,2.467,0.732C69.014,85.271,70.447,84.741,72.207,83.725       M58.324,40.746c-9.371,5.41-16.951,18.406-16.92,29.038c0.01,3.55,0.873,6.369,2.357,8.383      c-0.383,2.377-0.574,4.721-0.568,7.003c0.051,18.314,13.193,25.596,29.357,16.264c1.838-1.061,3.625-2.281,5.367-3.653      c2.395,0.077,5.123-0.674,8.023-2.348c9.381-5.417,16.951-18.409,16.92-29.029c-0.008-3.064-0.646-5.606-1.783-7.521      c0.434-2.556,0.66-5.069,0.652-7.509c-0.051-18.314-13.193-25.598-29.367-16.26c-1.699,0.981-3.375,2.117-5.004,3.375      C64.74,38.135,61.639,38.832,58.324,40.746" fill="#FFFFFF"/></g></g></g><path d="M72.363,35.113c-1.699,0.981-3.375,2.117-5.004,3.375c-2.619-0.354-5.721,0.344-9.035,2.258   c-9.371,5.41-16.951,18.406-16.92,29.038c0.01,3.55,0.873,6.369,2.357,8.383c-0.383,2.377-0.574,4.721-0.568,7.003   c0.041,14.716,8.537,22.299,20.26,19.873l7.605-13.172c-3.596,1.907-6.65,2.846-9.105,2.791c-1.963-0.068-3.59-0.759-4.83-2.07   c-1.248-1.305-1.885-2.955-1.891-4.906c-0.002-1.211,0.408-2.501,1.217-3.831c0.791-1.323,1.826-2.348,3.053-3.055   c1-0.577,1.873-0.743,2.574-0.473c0.676,0.265,1.256,0.894,1.725,1.854c0.529,1.043,1.094,1.852,1.691,2.4   c0.582,0.529,1.402,0.779,2.467,0.732c1.055-0.044,2.488-0.573,4.248-1.59c2.426-1.399,4.4-3.126,5.889-5.148   c1.457-1.963,2.16-3.729,2.154-5.385c-0.002-1.31-0.377-2.127-1.129-2.498c-0.805-0.379-1.861-0.425-3.139-0.144   c-1.33,0.3-3.137,0.827-5.373,1.593c-3.039,1.02-5.623,1.636-7.68,1.83c-2.098,0.199-3.795-0.232-5.033-1.264   c-1.266-1.068-1.91-2.931-1.918-5.558c-0.008-2.501,0.66-5.15,1.965-7.851c1.307-2.691,3.211-5.311,5.676-7.756   c2.422-2.422,5.311-4.606,8.582-6.494c2.615-1.511,4.912-2.488,6.838-2.926c1.926-0.427,3.553-0.452,4.832-0.058   c1.297,0.404,2.258,1.06,2.857,1.987c0.609,0.929,0.922,2.019,0.926,3.247c0.004,1.183-0.391,2.492-1.189,3.897   c-0.791,1.399-1.809,2.472-3,3.16c-1.078,0.623-1.934,0.809-2.523,0.563c-0.545-0.242-1.115-0.768-1.758-1.627   c-0.73-1.148-1.621-1.874-2.635-2.163c-0.986-0.286-2.635,0.238-4.896,1.546c-2.088,1.205-3.795,2.666-5.062,4.341   c-1.213,1.606-1.805,2.991-1.803,4.229c0.002,0.744,0.195,1.269,0.592,1.585c0.416,0.336,1.006,0.504,1.748,0.491   c0.77,0.003,1.564-0.107,2.359-0.319c0.812-0.209,2.176-0.621,4.051-1.215c2.375-0.795,4.551-1.396,6.469-1.809   c1.961-0.428,3.646-0.536,5.021-0.307c1.41,0.219,2.518,0.909,3.309,2.043c0.023,0.035,0.041,0.082,0.064,0.117l11.719-20.299   C96.141,30.775,85.213,27.694,72.363,35.113z" fill="#C3DFED"/></g></svg>